<?xml version="1.0" encoding="utf-8"?>
<!-- Generator: Adobe Illustrator 27.3.1, SVG Export Plug-In . SVG Version: 6.00 Build 0)  -->
<svg version="1.1" id="Layer_1" xmlns="http://www.w3.org/2000/svg" xmlns:xlink="http://www.w3.org/1999/xlink" x="0px" y="0px"
	 viewBox="0 0 1000 1000" enable-background="new 0 0 1000 1000" xml:space="preserve">
<rect width="1000" height="1000"/>
<g>
	<path fill="#FFFFFF" d="M190.856,471.05c0,4.963-4.024,8.986-8.988,8.986c-4.962,0-8.986-4.023-8.986-8.986
		c0-4.963,4.024-8.988,8.986-8.988C186.832,462.062,190.856,466.087,190.856,471.05"/>
	<g>
		<path fill="#FFFFFF" d="M358.389,482.022c6.871,10.269,11.079,17.5,12.633,21.693c1.55,4.197,2.826,12.036,3.823,23.519
			c1.329-1.884,2.327-3.491,2.991-4.82c2.327-4.543,4.156-10.859,5.486-18.949l12.134-12.134c-0.776,4.434-1.441,8.311-1.995,11.635
			c-1.442,7.979-2.439,12.467-2.992,13.463c-2.327,4.546-7.259,10.971-14.793,19.282l-11.967,11.968
			c-0.333-4.863-0.777-9.285-1.331-13.264c-1.108-9.506-2.272-15.971-3.49-19.398c-1.885-5.085-7.426-14.204-16.622-27.356
			l5.652-5.638h-10.639v-9.973h8.478c3.325-8.42,7.589-14.072,12.799-16.955c5.761-3.101,11.523-4.655,17.286-4.655
			c2.328,0,3.879,0.308,4.655,0.915c0.773,0.61,1.496,1.191,2.161,1.745c1.218,0.997,1.828,1.995,1.828,2.993
			c0,1.442-1.221,2.771-3.656,3.989c-1.442,0.775-3.88,1.163-7.315,1.163h-3.823h-3.656c-3.103,0-5.153,0.327-6.15,0.981
			c-2.66,1.967-5.044,5.242-7.147,9.823h48.037v9.973H358.389z"/>
		<path fill="#FFFFFF" d="M580.456,482.022h-65.324v-9.973h65.324V482.022z M536.573,502.301c2.881-2.882,6.317-5.375,10.306-7.48
			c4.653-2.436,8.919-3.657,12.799-3.657c3.878,0,7.091,1.275,9.642,3.823c3.212,3.215,4.654,7.924,4.321,14.128l-12.134,11.968
			c0.441-6.537-0.831-11.357-3.824-14.461c-2.217-2.103-5.375-3.157-9.474-3.157c-3.88,0-7.757,0.831-11.636,2.494v35.071h-14.46
			v-51.196h14.46V502.301z"/>
		<path fill="#FFFFFF" d="M712.929,501.635c1.662-3.213,7.922-4.82,18.783-4.82c17.618,0,26.43,3.951,26.43,11.848v15.519
			c0,2.114-1.222,4.977-3.658,8.592c-2.44,3.616-4.71,6.034-6.815,7.259h-15.957c1.883-1.561,4.045-4.01,6.482-7.35
			c2.66-3.787,3.989-6.514,3.989-8.186v-12.362c-2.868-2.336-5.235-3.812-7.108-4.426c-1.871-0.613-4.737-0.92-8.594-0.92
			c-3.195,0-5.951,0.39-8.266,1.165c-3.525,1.108-5.287,2.937-5.287,5.485v38.231h-11.635v-69.646h-6.482v-9.974h8.809
			c1.995-6.648,5.845-12.383,11.553-17.203c5.706-4.821,11.939-7.231,18.699-7.231c3.213,0,6.538,0.556,9.975,1.662
			c4.541,1.442,6.814,3.437,6.814,5.985c0,1.33-0.748,2.41-2.244,3.241c-1.496,0.83-2.966,1.246-4.404,1.246
			c-1.774,0-4.462-0.274-8.062-0.83c-3.602-0.554-6.345-0.832-8.229-0.832c-8.089,0-13.853,4.655-17.285,13.963h54.187v9.974
			h-51.694V501.635z"/>
		<path fill="#FFFFFF" d="M759.969,472.049h28.091v9.973h-28.091V472.049z M767.615,459.415c0-1.883,0.636-3.463,1.911-4.737
			c1.271-1.272,2.797-1.912,4.57-1.912c1.883,0,3.463,0.639,4.738,1.912c1.271,1.274,1.912,2.854,1.912,4.737
			c0,1.774-0.641,3.299-1.912,4.571c-1.275,1.275-2.856,1.912-4.738,1.912c-1.773,0-3.299-0.637-4.57-1.912
			C768.251,462.714,767.615,461.19,767.615,459.415 M779.749,544.852h-11.635v-55.018h11.635V544.852z"/>
		<polygon fill="#FFFFFF" points="210.11,459.269 268.793,560.045 281.083,540.073 234.382,459.269 		"/>
		<polygon fill="#FFFFFF" points="258.143,459.576 304.536,459.576 316.518,479.546 269.51,479.546 		"/>
		<polygon fill="#FFFFFF" points="293.352,519.559 316.498,479.516 293.454,479.413 281.164,500.1 		"/>
		<path fill="#FFFFFF" d="M234.382,459.269c0,0-21.199-34.309-50.081-11.471c-8.13,6.429-11.061,20.482-11.061,20.482l17.616,2.868
			c0,0-1.383-36.101,22.377-6.606L234.382,459.269z"/>
		<path fill="#FFFFFF" d="M435.935,489.667h-12.247c-12.286,0-22.25,9.965-22.25,22.251v6.537c0.029-0.01,0.049-0.019,0.049-0.019
			s-0.671,14.913,19.772,19.96c2.163,0.543,4.573,0.969,7.25,1.244h8.009v-9.234c-7.772-0.268-13.757-0.029-17.224-1.047
			c-0.721-0.197-1.333-0.465-1.837-0.8c-2.963-1.976-2.222-8.188-2.222-18.36v-0.029c0-5.816,4.721-10.529,10.538-10.529h8.651
			c4.642,0,8.405,3.764,8.405,8.406v37.471h11.634v-37.323C454.463,497.963,446.167,489.667,435.935,489.667 M435.511,472.047
			v-2.657h-15.624v2.657h-24.098v9.975h64.325v-9.975H435.511z"/>
		<path fill="#FFFFFF" d="M495.852,489.831h-12.247c-12.286,0-22.251,9.966-22.251,22.251v6.538
			c0.029-0.009,0.049-0.018,0.049-0.018s-0.671,14.912,19.772,19.959c2.163,0.544,4.572,0.968,7.25,1.245h8.01v-9.234
			c-7.773-0.267-13.758-0.03-17.225-1.048c-0.721-0.197-1.333-0.463-1.836-0.799c-2.963-1.976-2.223-8.188-2.223-18.361v-0.028
			c0-5.817,4.721-10.528,10.538-10.528h8.651c4.642,0,8.404,3.763,8.404,8.404v37.471h11.635v-37.322
			C514.379,498.129,506.083,489.831,495.852,489.831 M495.427,472.212v-2.657h-15.625v2.657h-24.099v9.975h64.325v-9.975H495.427z"
			/>
		<path fill="#FFFFFF" d="M615.436,489.419H603.19c-12.287,0-22.252,9.965-22.252,22.253v6.537c0.03-0.01,0.049-0.019,0.049-0.019
			s-0.671,14.912,19.772,19.96c2.163,0.543,4.573,0.968,7.25,1.243h8.009v-9.233c-7.772-0.267-13.758-0.03-17.223-1.048
			c-0.722-0.195-1.336-0.463-1.838-0.799c-2.963-1.975-2.223-8.188-2.223-18.359v-0.03c0-5.817,4.722-10.528,10.539-10.528h8.65
			c4.643,0,8.406,3.762,8.406,8.405v37.47h11.632v-37.322C633.963,497.715,625.669,489.419,615.436,489.419 M615.012,471.8v-2.657
			h-15.624v2.657H575.29v9.975h64.324V471.8H615.012z"/>
		<path fill="#FFFFFF" d="M675.352,489.584h-12.247c-12.285,0-22.251,9.966-22.251,22.252v6.538c0.029-0.011,0.05-0.021,0.05-0.021
			s-0.673,14.914,19.772,19.961c2.162,0.543,4.572,0.967,7.248,1.244h8.01v-9.234c-7.772-0.268-13.757-0.029-17.225-1.047
			c-0.72-0.198-1.333-0.465-1.836-0.801c-2.963-1.975-2.222-8.187-2.222-18.359v-0.029c0-5.818,4.72-10.528,10.538-10.528h8.651
			c4.642,0,8.404,3.763,8.404,8.404v37.471h11.634v-37.321C693.88,497.881,685.584,489.584,675.352,489.584 M674.928,471.965v-2.657
			h-15.624v2.657h-24.098v9.975h64.323v-9.975H674.928z"/>
	</g>
</g>
</svg>
